<?xml version="1.0" encoding="utf-8" ?><svg xmlns="http://www.w3.org/2000/svg" xmlns:xlink="http://www.w3.org/1999/xlink" width="1024" height="1024" viewBox="0 0 1024 1024"><defs><linearGradient id="gradient_0" gradientUnits="userSpaceOnUse" x1="274.12473" y1="778.94061" x2="788.08728" y2="208.79979"><stop offset="0" stop-color="#3F46F2"/><stop offset="1" stop-color="#6EA3F2"/></linearGradient></defs><path fill="url(#gradient_0)" d="M626.171 117.516C655.933 114.984 688.214 124.159 714.205 138.397C754.863 160.669 785.664 198.921 800.71 242.583C803.563 250.862 806.957 259.856 808.703 268.429C810.947 274.228 813.239 283.031 815.005 289.184L825.507 325.802L864.662 464.692L892.39 563.09C896.408 577.337 900.602 591.418 904.241 605.774C910.049 628.692 912.175 652.525 909.402 676.053C909.244 677.416 908.639 682.214 908.119 683.316C903.789 716.838 881.733 754.883 854.843 774.852C853.444 775.891 849.671 778.857 848.395 779.618C835.447 790.435 822.373 795.011 809.326 803.661C788.84 817.156 765.7 833.895 740.58 837.7C735.774 839.459 722.108 842.003 716.316 843.23L670.223 852.912L558.267 876.753L457.442 898.426C427.284 904.966 398.853 913.166 367.705 909.97C336.422 906.76 306.639 895.359 281.801 875.934C278.438 873.304 273.957 870.192 271.359 866.889C252.931 852.107 234.179 826.014 224.883 804.527C217.724 787.98 213.218 769.153 208.447 751.641L186.124 668.88L139.266 495.929C131.323 466.247 120.849 432.203 114.953 402.451C114.583 400.313 114.276 398.165 114.033 396.009C112.417 378.804 111.786 372.882 114.196 355.428C115.242 341.999 125.257 308.093 133.664 298.397C143.175 278.723 161.456 266.897 173.292 249.928C177.702 238.545 202.214 213.977 213.409 207.572C215.951 203.954 242.467 189.927 248.005 187.423C251.596 185.784 255.296 184.396 259.079 183.267C282.691 176.141 317.467 170.875 342.438 166.373L473.11 142.568C480.531 140.976 494.093 138.188 501.355 137.685C521.234 133.653 542.932 130.713 563.064 127.009C582.73 123.391 606.513 118.041 626.171 117.516Z"/><path fill="#919BC9" d="M281.391 256.055C293.762 243.665 306.688 244.111 323.161 241.167L368.524 232.902L517.153 205.484L614.364 187.542C625.059 185.531 635.77 183.605 646.496 181.765C665.484 178.376 682.543 174.189 697.975 189.615C701.449 193.142 704.2 197.317 706.07 201.902C709.623 210.545 712.408 221.196 715.133 230.289C720.184 247.081 725.141 263.901 730.003 280.748C743.045 325.08 757.677 372.355 769.244 416.911C772.291 423.522 776.328 433.336 775.588 440.842C775.339 447.643 773.529 453.58 769.153 458.936C766.164 463.126 763.205 465.813 758.919 468.656C755.766 474.333 732.049 488.68 724.946 491.474L724.24 491.718C722.444 492.36 720.553 492.635 718.789 493.377C717.524 493.601 716.263 493.847 715.007 494.114C714.296 494.259 713.285 494.478 712.604 494.696C691.879 497.896 669.728 502.976 649.014 507.043L491.381 539.001C466.515 543.753 441.689 548.715 416.907 553.885C413.476 554.59 396.486 557.586 393.943 558.811C374.337 560.884 350.955 572.697 332.263 562.663C316.684 554.299 314.685 533.792 310.161 518.21C305.887 503.489 301.779 488.295 297.89 473.386L274.025 385.001C268.707 365.243 263.214 342.759 257.307 323.409C257.096 321.562 255.868 317.231 255.352 315.324C253.104 307.003 251.845 302.586 252.034 294.017L252.417 291.647C252.566 290.266 252.839 288.934 253.133 287.577C254.03 283.532 254.881 280.581 257.49 277.296C262.057 275.284 263.677 273.665 267.705 270.859C270.404 268.978 272.935 268.09 275.742 265.877C276.215 263.862 277.956 262.553 279.343 261.148C280.511 258.998 280.745 258.47 281.391 256.055Z"/><defs><linearGradient id="gradient_1" gradientUnits="userSpaceOnUse" x1="431.0676" y1="519.10876" x2="617.79218" y2="148.15645"><stop offset="0" stop-color="#BABEC8"/><stop offset="1" stop-color="#DEDEE2"/></linearGradient></defs><path fill="url(#gradient_1)" d="M281.391 256.055C293.762 243.665 306.688 244.111 323.161 241.167L368.524 232.902L517.153 205.484L614.364 187.542C625.059 185.531 635.77 183.605 646.496 181.765C665.484 178.376 682.543 174.189 697.975 189.615C701.449 193.142 704.2 197.317 706.07 201.902C709.623 210.545 712.408 221.196 715.133 230.289C720.184 247.081 725.141 263.901 730.003 280.748C743.045 325.08 757.677 372.355 769.244 416.911C761.681 407.622 756.898 398.041 747.604 389.419C734.931 377.736 721.044 366.592 706.848 356.773C678.281 337.013 637.247 339.012 612.648 363.927C605.458 370.565 584.388 401.206 579.358 410.674C572.868 421.215 564.177 433.401 557.026 443.634C555.67 445.353 554.146 447.592 552.921 449.412L551.382 450.721C535.909 446.612 516.991 432.97 499.931 426.65C504.796 425.703 514.377 433.774 518.009 433.593C516.915 433.648 528.885 427.75 529.124 427.623C541.079 421.311 548.494 408.838 554.108 397.031C556.058 392.928 558.706 391.711 558.741 386.761C557.899 386.69 552.854 391.01 549.738 391.569L549.474 390.868C553.335 389.091 558.908 385.749 562.003 382.827C569.974 377.293 578.854 367.417 583.608 359.029L582.936 358.772C583.467 357.36 586.775 347.741 586.739 347.015C586.168 335.778 585.593 324.795 583.385 313.723C582.922 311.405 584.065 307.942 583.162 305.55C582.899 304.856 582.601 303.228 582.42 302.418C580.143 298.444 579.569 286.098 575.34 282.396C573.285 280.598 563.318 269.665 563.371 267.574C561.708 266.287 561.66 266.204 560.325 264.554C558.124 262.772 555.764 260.151 554.441 257.64C552.365 257.68 547.472 247.019 540.979 244.798L543.541 244.217C539.843 242.564 537.149 241.719 533.257 240.495C513.655 235.6 500.166 236.554 481.262 243.737C461.898 252.454 456.543 258.718 444.882 275.145L444.452 274.671C445.231 272.803 447.153 271.15 448.216 268.857C445.419 268.695 436.333 276.361 433.619 277.613C410.558 288.249 405.492 309.502 395.998 330.743C393.658 335.979 394.282 341.311 392.58 346.767C392.555 348.418 389.441 357.142 389.53 357.587C391.463 367.238 389.724 378.84 389.996 388.531C390.175 394.941 392.961 397.402 393.35 402.943C393.712 408.082 391.791 412.545 392.126 417.721C392.319 421.657 394.087 425.064 395.076 429.141C394.852 429.863 394.042 432.699 393.537 433.052C384.457 439.39 376.016 446.32 367.479 453.348C363.835 456.349 359.278 458.86 355.503 461.79C352.486 464.132 349.366 466.658 346.149 468.71C345.038 469.328 337.657 471.458 336.029 471.142C333.361 470.625 327.813 462.803 327.332 460.79C326.406 456.917 328.6 454.489 325.293 449.548C324.515 448.385 321.751 441.623 321.447 439.996C320.805 436.57 321.639 432.469 321.254 428.556C320.711 423.051 319.837 417.447 318.818 411.999C318.117 408.245 317.763 401.361 316.945 398.087C315.876 393.805 314.281 388.751 313.126 384.299C312.169 380.614 311.74 376.774 310.868 373.416C308.982 366.165 306.734 359.028 305.121 351.642C304.659 348.713 302.058 343.862 301.773 341.193C300.279 327.188 296.59 314.091 293.017 300.502C290.635 291.439 285.519 283.361 283.557 274.297C282.89 271.213 283.747 266.72 283.576 263.52C283.608 261.26 283.363 257.321 284.352 255.51L283.77 255.101C282.446 256.32 279.795 262.675 278.87 264.674C278.477 263.767 279.062 262.374 279.343 261.148C280.511 258.998 280.745 258.47 281.391 256.055Z"/><defs><linearGradient id="gradient_2" gradientUnits="userSpaceOnUse" x1="560.06" y1="296.33649" x2="583.21021" y2="280.72748"><stop offset="0" stop-color="#35B4E8"/><stop offset="1" stop-color="#8DCAF1"/></linearGradient></defs><path fill="url(#gradient_2)" d="M543.541 244.217C563.464 252.181 578.797 268.065 587.262 287.647C595.832 307.331 596.213 329.617 588.32 349.581C587.169 352.461 585.33 356.444 583.608 359.029L582.936 358.772C583.467 357.36 586.775 347.741 586.739 347.015C586.168 335.778 585.593 324.795 583.385 313.723C582.922 311.405 584.065 307.942 583.162 305.55C582.899 304.856 582.601 303.228 582.42 302.418C580.143 298.444 579.569 286.098 575.34 282.396C573.285 280.598 563.318 269.665 563.371 267.574C561.708 266.287 561.66 266.204 560.325 264.554C558.124 262.772 555.764 260.151 554.441 257.64C552.365 257.68 547.472 247.019 540.979 244.798L543.541 244.217Z"/><path fill="#59BBE8" d="M563.371 267.574C564.534 267.849 567.745 272.352 569.401 273.625C576.705 279.24 579.336 287.889 582.008 296.27C582.714 298.525 583.769 300.555 582.42 302.418C580.143 298.444 579.569 286.098 575.34 282.396C573.285 280.598 563.318 269.665 563.371 267.574Z"/><path fill="#59BBE8" d="M554.441 257.64L555.22 258.076C557.379 259.196 559.302 262.414 560.325 264.554C558.124 262.772 555.764 260.151 554.441 257.64Z"/><defs><linearGradient id="gradient_3" gradientUnits="userSpaceOnUse" x1="558.47668" y1="520.56598" x2="539.62946" y2="381.35489"><stop offset="0" stop-color="#0F935B"/><stop offset="1" stop-color="#51B884"/></linearGradient></defs><path fill="url(#gradient_3)" d="M612.648 363.927C637.247 339.012 678.281 337.013 706.848 356.773C721.044 366.592 734.931 377.736 747.604 389.419C756.898 398.041 761.681 407.622 769.244 416.911C772.291 423.522 776.328 433.336 775.588 440.842C775.339 447.643 773.529 453.58 769.153 458.936C766.164 463.126 763.205 465.813 758.919 468.656C748.316 472.509 725.032 475.924 713.132 478.055C691.654 482.032 670.217 486.219 648.822 490.617C582.891 504.806 516.777 518.131 450.497 530.588C435.323 533.526 420.223 536.898 405.069 539.897C389.53 542.973 373.025 549.332 357.754 542.295C348.996 538.234 342.163 530.922 338.704 521.909C338.488 521.321 338.291 520.727 338.113 520.126C333.357 508.366 339.486 500.502 346.65 491.996C350.67 486.503 356.525 479.632 360.86 474.108C364.861 469.01 372.079 459.63 376.525 455.4C378.4 452.678 391.595 438.345 394.153 436.318C408.532 421.599 426.821 413.055 447.499 413.608C455.807 413.83 460.87 413.625 469.007 416.361C479.494 418.97 491.181 424.486 499.931 426.65C516.991 432.97 535.909 446.612 551.382 450.721L552.921 449.412C554.146 447.592 555.67 445.353 557.026 443.634C564.177 433.401 572.868 421.215 579.358 410.674C584.388 401.206 605.458 370.565 612.648 363.927Z"/><defs><linearGradient id="gradient_4" gradientUnits="userSpaceOnUse" x1="685.16559" y1="422.78439" x2="719.96741" y2="365.37671"><stop offset="0" stop-color="#56AB78"/><stop offset="1" stop-color="#A7CAB1"/></linearGradient></defs><path fill="url(#gradient_4)" d="M612.648 363.927C637.247 339.012 678.281 337.013 706.848 356.773C721.044 366.592 734.931 377.736 747.604 389.419C756.898 398.041 761.681 407.622 769.244 416.911C772.291 423.522 776.328 433.336 775.588 440.842C774.647 442.898 774.639 443.828 774.306 446.111C771.449 446.408 764.609 445.402 761.837 444.312C760.078 443.612 758.27 443.042 756.428 442.605C751.521 441.414 746.257 438.722 741.67 436.481C728.16 429.88 714.929 423.253 699.979 420.498C691.701 418.972 680.091 419.08 672.58 415.374C660.684 409.506 655.997 391.839 654.279 379.83C653.454 374.647 655.252 365.1 649.897 363.095C643.612 360.743 629.457 361.885 623.65 364.313C620.634 362.057 615.932 362.625 612.648 363.927Z"/><path fill="#45AA75" d="M623.65 364.313C629.457 361.885 643.612 360.743 649.897 363.095C655.252 365.1 653.454 374.647 654.279 379.83C655.997 391.839 660.684 409.506 672.58 415.374C680.091 419.08 691.701 418.972 699.979 420.498C714.929 423.253 728.16 429.88 741.67 436.481C746.257 438.722 751.521 441.414 756.428 442.605C758.27 443.042 760.078 443.612 761.837 444.312C764.609 445.402 771.449 446.408 774.306 446.111C774.639 443.828 774.647 442.898 775.588 440.842C775.339 447.643 773.529 453.58 769.153 458.936C769.05 456.5 769.969 457.251 769.988 455.077C758.581 450.313 708.613 437.987 696.99 438.161C685.396 438.336 673.39 442.844 661.896 440.514C659.502 440.029 657.489 439.221 655.85 437.351C645.14 425.128 651.144 389.09 641.301 373.745C634.485 370.379 626.747 369.38 619.351 371.241C617.509 370.578 616.161 370.412 615.389 368.995C616.453 366.519 621.175 365.467 623.65 364.313Z"/><path fill="#45AA75" d="M394.153 436.318C408.532 421.599 426.821 413.055 447.499 413.608C455.807 413.83 460.87 413.625 469.007 416.361L468.244 416.879C449.579 412.613 428.554 413.231 411.844 423.551C410.885 424.143 410.641 424.352 410.083 425.368C412.225 425.214 417.896 421.376 421.156 420.683C421.796 421.475 421.434 421.136 422.236 421.704C420.896 423.449 419.892 424.774 418.706 426.619C420.977 426.41 422.001 426.2 424.208 426.69L424.349 427.708C422.842 428.413 421.204 428.69 420.126 429.219C414.972 431.751 404.269 437.528 400.423 441.152C397.342 442.162 391.373 445.065 388.502 446.825C385.72 449.358 380.067 453.767 376.525 455.4C378.4 452.678 391.595 438.345 394.153 436.318Z"/><path fill="#64AC86" d="M394.153 436.318C396.073 435.702 399.553 433.506 401.152 433.022C401.266 433.242 399.682 435.134 399.387 435.497C396.06 439.585 391.884 442.702 388.502 446.825C385.72 449.358 380.067 453.767 376.525 455.4C378.4 452.678 391.595 438.345 394.153 436.318Z"/><path fill="#64AC86" d="M562.388 442.378C563.15 443.675 561.204 444.36 566.498 445.089C568.966 445.429 573.508 445.66 575.534 447.413C575.345 447.761 575.25 448.185 575.002 448.504C574.915 448.696 574.828 448.888 574.741 449.081C574.661 449.28 574.58 449.479 574.5 449.677C574.462 449.716 574.424 449.755 574.386 449.794C574.249 450.366 576.918 451.613 577.95 453.872C578.039 454.058 578.572 454.525 578.75 454.696C578.773 455.714 578.787 455.355 578.732 456.285L578.692 456.892C579.782 458.199 587.809 462.053 589.708 462.829L588.569 461.311C590.014 460.663 604.425 465.097 605.676 467.352L604.913 467.76C597.163 464.855 590.888 466.186 582.907 464.004C577.705 462.582 577.407 458.507 574.236 457.684C566.905 455.781 558.215 454.049 551.382 450.721L552.921 449.412C554.146 447.592 555.67 445.353 557.026 443.634C559.755 443.529 559.875 443.575 562.388 442.378Z"/><path fill="#45AA75" d="M562.388 442.378C563.15 443.675 561.204 444.36 566.498 445.089C568.966 445.429 573.508 445.66 575.534 447.413C575.345 447.761 575.25 448.185 575.002 448.504C574.915 448.696 574.828 448.888 574.741 449.081C574.661 449.28 574.58 449.479 574.5 449.677C574.462 449.716 574.424 449.755 574.386 449.794C574.249 450.366 576.918 451.613 577.95 453.872C575.482 452.963 573.681 451.56 570.758 451.227C569.529 450.955 564.845 450.796 564.261 450.534C559.751 448.509 555.658 453.887 552.921 449.412C554.146 447.592 555.67 445.353 557.026 443.634C559.755 443.529 559.875 443.575 562.388 442.378Z"/><path fill="#45A29A" d="M612.648 363.927C615.932 362.625 620.634 362.057 623.65 364.313C621.175 365.467 616.453 366.519 615.389 368.995C616.161 370.412 617.509 370.578 619.351 371.241L616.093 371.991C610.528 373.289 594.534 393.33 591.718 397.899C589.015 399.79 583.163 407.768 581.651 410.795L581.283 411.517C579.27 415.758 576.978 418.054 573.682 421.277C574.984 419.261 580.318 412.525 579.358 410.674C584.388 401.206 605.458 370.565 612.648 363.927Z"/><path fill="#3C8B79" d="M388.502 446.825C391.373 445.065 397.342 442.162 400.423 441.152C398.192 443.354 392.283 449.419 389.891 451.037C373.677 459.282 363.492 480.773 348.383 490.87C347.494 491.464 347.678 491.545 346.65 491.996C350.67 486.503 356.525 479.632 360.86 474.108C364.861 469.01 372.079 459.63 376.525 455.4C380.067 453.767 385.72 449.358 388.502 446.825Z"/><path fill="#2E7D69" d="M346.65 491.996C347.678 491.545 347.494 491.464 348.383 490.87C363.492 480.773 373.677 459.282 389.891 451.037C385.422 456.234 379.103 461.138 375.07 466.103C365.473 477.917 348.967 492.552 341.828 505.437L341.305 504.782C339.379 504.769 340.101 504.411 338.823 505.356C336.327 511.787 338.73 515.389 338.113 520.126C333.357 508.366 339.486 500.502 346.65 491.996Z"/><path fill="#3C8B79" d="M573.682 421.277C576.978 418.054 579.27 415.758 581.283 411.517L581.651 410.795C583.163 407.768 589.015 399.79 591.718 397.899C589.16 403.672 587.266 404.465 584.782 408.565C579.14 417.88 572.636 426.294 567.117 435.591C565.421 438.448 562.655 440.417 562.388 442.378C559.875 443.575 559.755 443.529 557.026 443.634C564.177 433.401 572.868 421.215 579.358 410.674C580.318 412.525 574.984 419.261 573.682 421.277Z"/><defs><linearGradient id="gradient_5" gradientUnits="userSpaceOnUse" x1="456.5123" y1="369.74438" x2="570.88013" y2="276.70633"><stop offset="0" stop-color="#0051B7"/><stop offset="1" stop-color="#25B9EB"/></linearGradient></defs><path fill="url(#gradient_5)" d="M481.262 243.737C500.166 236.554 513.655 235.6 533.257 240.495C537.149 241.719 539.843 242.564 543.541 244.217L540.979 244.798C547.472 247.019 552.365 257.68 554.441 257.64C555.764 260.151 558.124 262.772 560.325 264.554C561.66 266.204 561.708 266.287 563.371 267.574C563.318 269.665 573.285 280.598 575.34 282.396C579.569 286.098 580.143 298.444 582.42 302.418C582.601 303.228 582.899 304.856 583.162 305.55C584.065 307.942 582.922 311.405 583.385 313.723C585.593 324.795 586.168 335.778 586.739 347.015C586.775 347.741 583.467 357.36 582.936 358.772L583.608 359.029C578.854 367.417 569.974 377.293 562.003 382.827C558.908 385.749 553.335 389.091 549.474 390.868C541.733 392.792 533.967 400.904 530.777 401.517L530.632 401.459C530.445 400.808 533.577 399.376 534.322 398.789C536.915 396.744 539.578 394.642 542.32 392.8L543.715 391.895C543.997 391.711 544.174 391.6 544.361 391.33C544.236 391.259 543.877 391.276 543.766 391.311C543.09 391.529 542.369 391.848 541.706 392.124C541.474 392.182 541.242 392.239 541.01 392.297C540.353 392.399 541.076 392.378 540.231 392.541C537.754 392.979 534.815 392.753 532.305 392.652C532.193 392.558 532.081 392.464 531.97 392.369C531.557 392.024 531.356 392.284 530.987 392.451C529.626 393.067 527.937 392.552 526.486 392.859C526.404 392.876 525.94 392.833 525.877 392.831C525.186 392.798 524.408 393.078 523.82 393.429C523.806 393.448 523.792 393.468 523.778 393.487C523.654 393.594 523.53 393.7 523.405 393.807C523.08 394.035 522.976 394.471 522.866 394.832C522.834 394.935 523.083 395.287 523.165 395.418C523.646 395.635 524.846 396.116 525.27 396.449C515.853 397.91 506.272 397.177 497.039 394.923C476.147 389.761 458.186 376.461 447.154 357.984C436.765 340.812 432.236 317.885 437.216 298.412C437.759 296.288 438.239 294.143 438.765 292.012C439.453 295.632 438.91 299.782 442.495 302.098C450.472 303.076 460.916 271.127 467.748 265.528C469.305 264.252 473.709 256.946 474.166 254.686C471.813 255.81 464.78 261.403 462.466 263.217C462.523 263.077 462.58 262.937 462.637 262.797C463.863 255.199 476.126 249.117 481.262 243.737Z"/><path fill="#59BBE8" d="M481.262 243.737C500.166 236.554 513.655 235.6 533.257 240.495C537.149 241.719 539.843 242.564 543.541 244.217L540.979 244.798C539.126 244.44 535.2 242.705 533.281 241.925L532.421 241.734C531.43 241.509 531.153 241.408 530.308 241.085C523.601 238.522 507.053 237.916 500.163 239.287L499.901 239.755C505.445 241.872 517.674 238.954 523.896 242.186C520.712 242.302 517.787 242.27 514.606 242.224C516.246 243.578 522.458 244.25 524.777 244.111C530.427 243.77 546.352 247.892 548.055 254.606C545.892 254.766 538.385 250.009 535.711 249.088C531.136 247.513 527.674 247.504 522.996 246.965C522.262 246.88 519.493 245.547 518.023 245.403C499.263 243.564 489.201 244.172 474.166 254.686C471.813 255.81 464.78 261.403 462.466 263.217C462.523 263.077 462.58 262.937 462.637 262.797C463.863 255.199 476.126 249.117 481.262 243.737Z"/><path fill="#2F83D1" d="M523.165 395.418C522.957 395.719 522.478 396.546 522.343 396.48C519.798 395.241 520.913 396.219 520.017 396.707L519.801 396.643C519.796 396.636 519.357 390.889 519.6 390.29C519.488 390.137 513.456 390.019 512.885 389.91L512.643 389.674L512.642 389.794L512.663 389.67C513.634 389.005 520.923 388.556 522.516 388.492C532.311 388.064 542.068 386.995 551.723 385.293C556.052 384.554 557.773 382.926 562.003 382.827C558.908 385.749 553.335 389.091 549.474 390.868C541.733 392.792 533.967 400.904 530.777 401.517L530.632 401.459C530.445 400.808 533.577 399.376 534.322 398.789C536.915 396.744 539.578 394.642 542.32 392.8L543.715 391.895C543.997 391.711 544.174 391.6 544.361 391.33C544.236 391.259 543.877 391.276 543.766 391.311C543.09 391.529 542.369 391.848 541.706 392.124C541.474 392.182 541.242 392.239 541.01 392.297C540.353 392.399 541.076 392.378 540.231 392.541C537.754 392.979 534.815 392.753 532.305 392.652C532.193 392.558 532.081 392.464 531.97 392.369C531.557 392.024 531.356 392.284 530.987 392.451C529.626 393.067 527.937 392.552 526.486 392.859C526.404 392.876 525.94 392.833 525.877 392.831C525.186 392.798 524.408 393.078 523.82 393.429C523.806 393.448 523.792 393.468 523.778 393.487C523.654 393.594 523.53 393.7 523.405 393.807C523.08 394.035 522.976 394.471 522.866 394.832C522.834 394.935 523.083 395.287 523.165 395.418Z"/><path fill="#96C1F5" d="M560 304.58L558.919 304.728L558.837 305.265C560.298 306.333 559.528 306.118 561.13 306.198L561.361 306.763C560.246 307.298 559.639 306.831 558.083 306.47L560.624 308.515L559.057 308.79C557.857 309.002 557.668 309.052 556.521 308.59L557.002 309.586C558.324 310.32 557.64 310.031 559.726 309.59L559.926 310.08C556.603 311.651 556.384 309.7 553.607 310.011L553.934 310.654L555.853 310.88L555.606 311.509L552.128 312.214C552.827 312.65 553.942 312.556 554.884 312.606C554.631 313.015 554.378 313.424 554.125 313.833C555.853 314.51 561.61 316.554 562.637 317.54C550.358 318.627 531.56 301.588 527.423 290.316C523.626 279.969 514.529 253.758 535.553 257.077C536.885 257.452 537.721 257.814 538.901 258.486C541.783 260.13 545.058 258.727 543.726 262.2L544.598 262.513C551.36 264.854 554.304 270.192 559.975 273.427C561.269 274.165 563.05 275.008 564.36 275.68C565.079 277.928 566.315 280.641 566.718 282.758C566.914 283.786 574.7 302.258 569.083 299.082C568.899 299.218 568.716 299.355 568.532 299.492C568.521 299.446 568.511 299.401 568.501 299.355C568.045 299.393 566.364 301.493 566.304 301.886C566.465 302.034 566.625 302.182 566.786 302.33C567.154 301.255 564.484 306.208 565.441 305.249C564.925 305.392 564.561 304.071 564.347 303.771C563.439 303.601 561.77 304.552 560 304.58Z"/><path fill="#63B3EA" d="M560 304.58L558.919 304.728L558.837 305.265C560.298 306.333 559.528 306.118 561.13 306.198L561.361 306.763C560.246 307.298 559.639 306.831 558.083 306.47L560.624 308.515L559.057 308.79C557.857 309.002 557.668 309.052 556.521 308.59L557.002 309.586C558.324 310.32 557.64 310.031 559.726 309.59L559.926 310.08C556.603 311.651 556.384 309.7 553.607 310.011L553.934 310.654L555.853 310.88L555.606 311.509L552.128 312.214C552.827 312.65 553.942 312.556 554.884 312.606C554.631 313.015 554.378 313.424 554.125 313.833C555.853 314.51 561.61 316.554 562.637 317.54C550.358 318.627 531.56 301.588 527.423 290.316C523.626 279.969 514.529 253.758 535.553 257.077C533.516 257.826 528.038 259.196 527.324 261.105C525.981 264.695 525.57 269.098 524.829 272.864C524.696 273.538 524.998 277.622 525.95 277.188C526.368 275.798 525.127 274.915 526.429 273.509C527.629 271.949 526.564 269.951 527.307 268.203C527.45 267.865 526.677 266.165 527.347 265.845C529.248 264.936 527.731 270.028 528.673 270.694C528.882 270.841 528.565 271.79 528.979 272.524L529.217 272.615C529.809 272.261 529.32 270.604 529.556 269.817C530.89 269.366 529.616 270.777 531.024 271.429C531.452 271.627 531.71 271.123 532.089 271.25C533.044 272.475 532.344 277.54 534.612 277.892C535.435 280.264 536.17 282.749 537.287 284.987L537.531 285.486C540.513 291.381 544.725 298.291 550.794 301.35L551.514 301.72C553.9 302.916 556.057 302.313 557.25 304.212C557.66 304.864 560.299 302.3 560 304.58Z"/><path fill="#59BBE8" d="M535.553 257.077C536.885 257.452 537.721 257.814 538.901 258.486C541.783 260.13 545.058 258.727 543.726 262.2L544.598 262.513C551.36 264.854 554.304 270.192 559.975 273.427C561.269 274.165 563.05 275.008 564.36 275.68C565.079 277.928 566.315 280.641 566.718 282.758C566.914 283.786 574.7 302.258 569.083 299.082C568.574 297.04 568.336 298.073 567.661 296.538L567.526 296.568C566.995 297.096 566.014 301.236 564.799 299.184L564.873 299.245C564.889 297.887 566.303 297.314 566.52 294.982C566.937 290.497 566.374 283.124 563.435 279.498C558.641 273.585 552.591 268.188 546.019 264.669C538.411 264.984 537.589 265.159 534.274 271.939C533.154 272.631 534.256 276.777 534.612 277.892C532.344 277.54 533.044 272.475 532.089 271.25C531.71 271.123 531.452 271.627 531.024 271.429C529.616 270.777 530.89 269.366 529.556 269.817C529.32 270.604 529.809 272.261 529.217 272.615L528.979 272.524C528.565 271.79 528.882 270.841 528.673 270.694C527.731 270.028 529.248 264.936 527.347 265.845C526.677 266.165 527.45 267.865 527.307 268.203C526.564 269.951 527.629 271.949 526.429 273.509C525.127 274.915 526.368 275.798 525.95 277.188C524.998 277.622 524.696 273.538 524.829 272.864C525.57 269.098 525.981 264.695 527.324 261.105C528.038 259.196 533.516 257.826 535.553 257.077Z"/><path fill="#0552B7" d="M473.259 314.496C477.888 316.655 479.237 319.285 482.343 322.911C486.176 327.385 503.009 347.702 489.431 349.548C489.193 349.486 489.305 349.498 489.093 349.504C485.76 351.501 477.354 345.457 476.019 342.198C475.404 340.698 474.133 339.656 473.155 337.807C470.058 331.955 466.693 322.044 470.743 315.939C471.418 314.937 472.316 316.822 473.259 314.496Z"/><path fill="#2F83D1" d="M444.882 275.145C456.543 258.718 461.898 252.454 481.262 243.737C476.126 249.117 463.863 255.199 462.637 262.797C462.58 262.937 462.523 263.077 462.466 263.217C464.78 261.403 471.813 255.81 474.166 254.686C473.709 256.946 469.305 264.252 467.748 265.528C460.916 271.127 450.472 303.076 442.495 302.098C438.91 299.782 439.453 295.632 438.765 292.012C438.239 294.143 437.759 296.288 437.216 298.412C432.236 317.885 436.765 340.812 447.154 357.984C458.186 376.461 476.147 389.761 497.039 394.923C506.272 397.177 515.853 397.91 525.27 396.449C526.716 396.524 526.954 396.097 528.59 396.501L528.574 397.102C520.511 401.049 503.415 397.978 495.044 395.736C473.892 389.992 455.923 376.011 445.155 356.92C436.275 341.454 430.458 315.235 435.507 297.778L435.035 297.562C434.427 298 433.792 298.707 433.59 299.442C427.066 323.144 421.827 345.753 431.478 369.526C431.736 370.161 431.815 370.475 431.938 371.152C431.151 370.392 431.386 370.452 430.98 369.386C424.206 352.331 424.929 337.571 427.968 320.008C430.731 304.039 434.484 297.203 440.91 282.929C441.258 281.582 444.049 276.677 444.882 275.145Z"/><defs><linearGradient id="gradient_6" gradientUnits="userSpaceOnUse" x1="450.7908" y1="291.68387" x2="440.54105" y2="277.93216"><stop offset="0" stop-color="#2F7FD5"/><stop offset="1" stop-color="#73A1E4"/></linearGradient></defs><path fill="url(#gradient_6)" d="M444.882 275.145C456.543 258.718 461.898 252.454 481.262 243.737C476.126 249.117 463.863 255.199 462.637 262.797C462.58 262.937 462.523 263.077 462.466 263.217C460.793 265.378 458.656 267.963 457.338 270.358C453.902 276.595 450.865 293.544 444.745 296.837C436.896 297.126 443.223 286.916 440.91 282.929C441.258 281.582 444.049 276.677 444.882 275.145Z"/><path fill="#CECED5" d="M257.49 277.296C262.057 275.284 263.677 273.665 267.705 270.859C270.404 268.978 272.935 268.09 275.742 265.877C275.291 268.905 274.361 271.948 274.796 275.003C273.108 278.555 271.933 278.369 268.577 280.742C266.151 282.456 256.526 289.776 253.647 289.264C253.44 289.038 253.364 288.514 253.299 288.246L253.133 287.577C254.03 283.532 254.881 280.581 257.49 277.296Z"/><path fill="#B9B6C9" d="M274.796 275.003C275.278 279.103 275.038 283.079 276.044 287.49C276.505 289.509 278.284 295.328 278.482 297.791C278.487 297.857 279.573 299.155 277.811 299.57C276.74 298.289 273.435 282.298 273.034 279.751L272.626 280.065C268.408 283.348 257.29 289.52 252.417 291.647C252.566 290.266 252.839 288.934 253.133 287.577L253.299 288.246C253.364 288.514 253.44 289.038 253.647 289.264C256.526 289.776 266.151 282.456 268.577 280.742C271.933 278.369 273.108 278.555 274.796 275.003Z"/><path fill="#1015DF" d="M173.292 249.928C177.702 238.545 202.214 213.977 213.409 207.572C211.396 212.14 205.379 214.732 202.131 218.389C200.515 220.208 199.045 224.156 197.693 226.27C190.945 240.4 180.427 257.919 175.245 272.386C167.344 294.447 164.731 323.502 166.891 346.803C167.509 353.468 169.319 360.464 170.092 366.841C171.917 381.906 175.495 395.167 180.013 409.619C184.123 422.766 187.344 436.315 191.063 449.676C194.046 460.394 196.884 468.59 200.305 478.844C203.179 487.461 206.293 500.353 208.878 509.389C211.009 517.027 213.315 524.615 215.793 532.148C216.945 535.67 219.719 543.422 220.425 546.826C221.17 548.565 222.397 551.071 222.017 552.891C222.71 558.486 227.054 565.69 228.265 571.226C228.824 573.784 229.571 576.542 231.679 578.291L232.448 578.017C234.383 572.892 232.784 559.405 232.548 553.325C231.742 532.587 230.239 510.764 224.123 490.884C221.054 479.626 219.97 467.876 218.167 456.445C216 440.725 212.16 425.213 210.148 409.477C206.883 383.936 192.29 356.892 205.051 331.929C207.063 327.995 208.538 323.215 211.039 319.683C219.9 307.168 235.513 302.393 249.024 296.75C251.665 295.652 251.227 296.023 252.034 294.017C251.845 302.586 253.104 307.003 255.352 315.324C255.868 317.231 257.096 321.562 257.307 323.409C263.214 342.759 268.707 365.243 274.025 385.001L297.89 473.386C301.779 488.295 305.887 503.489 310.161 518.21C314.685 533.792 316.684 554.299 332.263 562.663C350.955 572.697 374.337 560.884 393.943 558.811C396.486 557.586 413.476 554.59 416.907 553.885C441.689 548.715 466.515 543.753 491.381 539.001L649.014 507.043C669.728 502.976 691.879 497.896 712.604 494.696C713.285 494.478 714.296 494.259 715.007 494.114C716.263 493.847 717.524 493.601 718.789 493.377C718.714 495.192 710.63 503.367 709.144 504.887C708.528 505.461 706.926 507.251 706.272 507.594C706.122 507.27 706.05 507.136 705.892 506.728C705.188 506.713 705.47 507.746 704.776 508.101C704.643 507.973 704.51 507.845 704.378 507.717C704.095 507.775 703.168 509.66 701.569 509.814L701.522 509.793C701.225 509.843 698.98 510.831 698.037 511.085C695.753 514.253 684.4 522.294 681.051 524.4C648.806 544.676 611.935 557.474 574.256 562.732C570.669 563.233 558.068 564.983 555.08 565.652C544.835 567.943 533.515 570.524 523.538 572.364C514.447 574.04 476.445 579.147 470.355 583.149C462.901 580.485 456.479 580.474 449.494 584.519C421.269 576.928 372.369 609.714 345.778 619.08C335.99 622.529 326.729 626.612 316.278 628.953C309.717 630.423 303.024 633.903 295.911 634.056C280.369 635.991 266.27 629.506 254.534 619.772C250.893 616.752 245.054 609.632 240.984 609.439C240.097 608.281 240.086 608.121 239.503 606.758L238.883 607.1C239.891 616.901 242.768 625.824 244.291 635.292C249.142 665.461 256.96 695.132 264.917 724.617C266.555 730.687 267.871 736.744 269.957 742.673C279.369 768.079 298.312 800.67 318.418 818.835L319.203 819.453C325.453 824.425 334.452 833.381 340.608 837.693C360.862 851.88 382.159 861.515 406.164 867.435C410.234 868.438 415.699 870.16 419.636 870.925C427.94 872.539 441.316 871.625 449.26 873.035C466.686 871.289 483.884 865.182 501.366 862.801C505.835 862.193 511.358 860.267 516.001 859.335C576.206 847.786 636.095 834.647 695.605 819.93C708.244 816.911 726.499 815.357 738.881 810.743C746.385 807.947 751.627 809.554 755.91 807.554L764.629 805.281C765.542 804.508 778.688 801.644 780.185 801.928C784.845 800.411 790.714 799.736 795.016 797.538L795.515 797.294C796.343 796.88 798.882 795.619 799.748 795.735C802.625 796.121 803.454 792.714 807.009 793.538C818.26 790.002 827.236 786.041 837.869 780.897C842.087 778.857 851.296 773.461 855.021 772.545L855.024 773.214C848.193 779.485 833.668 785.567 825.458 791.002C823.542 792.271 815.482 795.172 815.075 796.736C824.489 794.183 844.82 779.614 848.395 779.618C835.447 790.435 822.373 795.011 809.326 803.661C788.84 817.156 765.7 833.895 740.58 837.7C735.774 839.459 722.108 842.003 716.316 843.23L670.223 852.912L558.267 876.753L457.442 898.426C427.284 904.966 398.853 913.166 367.705 909.97C336.422 906.76 306.639 895.359 281.801 875.934C278.438 873.304 273.957 870.192 271.359 866.889C252.931 852.107 234.179 826.014 224.883 804.527C217.724 787.98 213.218 769.153 208.447 751.641L186.124 668.88L139.266 495.929C131.323 466.247 120.849 432.203 114.953 402.451C114.583 400.313 114.276 398.165 114.033 396.009C112.417 378.804 111.786 372.882 114.196 355.428C115.242 341.999 125.257 308.093 133.664 298.397C143.175 278.723 161.456 266.897 173.292 249.928Z"/><defs><linearGradient id="gradient_7" gradientUnits="userSpaceOnUse" x1="271.14056" y1="598.48822" x2="148.00107" y2="617.09479"><stop offset="0" stop-color="#302EEB"/><stop offset="1" stop-color="#5862F4"/></linearGradient></defs><path fill="url(#gradient_7)" d="M150.5 347.639C150.453 350.307 150.35 352.009 150.819 354.676C151.446 353.022 151.419 351.084 151.519 349.285L151.599 349.77C152.259 353.914 152.582 358.375 153.062 362.591C155.084 380.347 160.137 397.103 164.662 414.295L176.723 460.859L214.262 600.848C218.089 615.092 221.461 630.783 225.947 644.615C245.65 705.37 250.768 774.106 297.609 822.059C300.338 824.853 304.475 830.796 307.105 832.977C305.146 834.942 300.158 838.311 297.213 841.029C291.208 846.57 286.989 851.445 281.693 857.649C279.068 860.724 275.478 863.913 273.119 867.159L271.933 866.409L271.359 866.889C252.931 852.107 234.179 826.014 224.883 804.527C217.724 787.98 213.218 769.153 208.447 751.641L186.124 668.88L139.266 495.929C131.323 466.247 120.849 432.203 114.953 402.451C114.583 400.313 114.276 398.165 114.033 396.009L114.379 395.651C115.047 394.969 119.044 389.108 119.536 388.02C121.062 384.561 125.959 379.559 127.227 374.62C127.477 373.645 136.322 363.117 137.582 361.583C139.183 360.557 140.861 360.65 141.737 359.173L140.329 358.882L140.225 358.351C141.827 358.574 143.125 359.027 144.267 357.704C143.276 357.565 142.283 357.435 141.29 357.313C142.9 356.816 144.114 356.795 144.899 355.719L143.489 355.749L143.178 355.343C145.996 351.869 147.175 350.635 150.5 347.639Z"/><path fill="#7F83DC" d="M119.536 388.02C120.106 388.812 120.947 389.057 121.049 389.377L120.999 389.573C120.743 389.655 120.502 389.734 120.273 389.862C120.217 390.001 120.171 390.285 120.255 390.377C120.513 390.658 121.799 390.686 121.277 391.436C120.749 392.196 119.31 390.966 119.829 392.686C120.035 393.37 119.004 393.925 118.534 394.137C117.427 394.591 117.736 395.971 117.323 396.896C117.27 397.258 117.217 397.62 117.164 397.982C116.93 399.485 115.765 401.194 114.953 402.451C114.583 400.313 114.276 398.165 114.033 396.009L114.379 395.651C115.047 394.969 119.044 389.108 119.536 388.02Z"/><path fill="#060AD2" d="M642.864 838.996L725.881 823.043C731.603 821.887 757.651 815.28 761.372 815.665C762.349 817.537 764.503 828.12 763.967 829.381C759.57 831.977 745.744 835.736 740.45 837.005L740.58 837.7C735.774 839.459 722.108 842.003 716.316 843.23L670.223 852.912L558.267 876.753L457.442 898.426C427.284 904.966 398.853 913.166 367.705 909.97C336.422 906.76 306.639 895.359 281.801 875.934C278.438 873.304 273.957 870.192 271.359 866.889L271.933 866.409L273.119 867.159C275.478 863.913 279.068 860.724 281.693 857.649C286.989 851.445 291.208 846.57 297.213 841.029C300.158 838.311 305.146 834.942 307.105 832.977C311.646 837.126 321.663 845.502 327.407 847.634L327.405 847.468C331.867 849.908 351.575 863.432 354.01 864.086C385.327 878.176 409.178 881.376 442.756 881.111C442.63 881.112 444.604 881.329 444.504 881.318C455.327 880.644 484.207 873.542 495.692 871.009L590.346 850.271C601.818 847.806 613.304 845.405 624.803 843.069C629.162 842.17 639.05 840.392 642.864 838.996Z"/><path fill="#3136F1" d="M354.01 864.086C385.327 878.176 409.178 881.376 442.756 881.111C442.63 881.112 444.604 881.329 444.504 881.318C439.662 881.601 431.963 882.514 427.178 882.362C407.144 881.725 383.667 878.993 365.332 870.9C361.808 869.344 355.646 867.198 353.336 865.099L354.01 864.086Z"/><path fill="#848AF2" d="M114.196 355.428C116.055 355.052 117.237 337.793 119.379 336.39C130.235 329.275 139.004 321.697 148.777 313.276C149.335 315.821 147.628 322.899 148.131 325.297L148.957 321.885C148.931 324.394 148.677 330.219 149.269 332.331C150.02 329.193 148.933 319.166 150.673 316.777L151.33 317.023C151.574 317.652 150.465 330.166 150.574 332.757C150.778 330.096 150.865 328.87 151.477 326.233C151.434 333.917 151.448 341.601 151.519 349.285C151.419 351.084 151.446 353.022 150.819 354.676C150.35 352.009 150.453 350.307 150.5 347.639C147.175 350.635 145.996 351.869 143.178 355.343L143.489 355.749L144.899 355.719C144.114 356.795 142.9 356.816 141.29 357.313C142.283 357.435 143.276 357.565 144.267 357.704C143.125 359.027 141.827 358.574 140.225 358.351L140.329 358.882L141.737 359.173C140.861 360.65 139.183 360.557 137.582 361.583C136.322 363.117 127.477 373.645 127.227 374.62C125.959 379.559 121.062 384.561 119.536 388.02C119.044 389.108 115.047 394.969 114.379 395.651L114.033 396.009C112.417 378.804 111.786 372.882 114.196 355.428Z"/><path fill="#7F83DC" d="M150.574 332.757C150.778 330.096 150.865 328.87 151.477 326.233C151.434 333.917 151.448 341.601 151.519 349.285C151.419 351.084 151.446 353.022 150.819 354.676C150.35 352.009 150.453 350.307 150.5 347.639C147.175 350.635 145.996 351.869 143.178 355.343L143.489 355.749L144.899 355.719C144.114 356.795 142.9 356.816 141.29 357.313C142.283 357.435 143.276 357.565 144.267 357.704C143.125 359.027 141.827 358.574 140.225 358.351L140.329 358.882L141.737 359.173C140.861 360.65 139.183 360.557 137.582 361.583C132.535 361.747 126.675 373.653 124.093 375.84L123.89 374.271L122.21 373.904C119.285 375.923 119.492 380.046 117.338 381.651L116.942 380.357C121.181 372.558 122.827 370.636 129.008 364.318C133.755 359.465 138.334 351.997 144.552 348.389C147.625 346.606 147.995 345.905 150.5 343.25C150.515 340.682 150.177 334.815 150.574 332.757Z"/><defs><linearGradient id="gradient_8" gradientUnits="userSpaceOnUse" x1="131.62044" y1="294.23138" x2="147.43944" y2="315.00378"><stop offset="0" stop-color="#0F10EA"/><stop offset="1" stop-color="#555AF6"/></linearGradient></defs><path fill="url(#gradient_8)" d="M173.292 249.928C174.459 252.495 168.863 262.435 167.723 263.207C165.153 263.614 161.879 272.547 160.177 274.986C154.758 288.657 149.544 307.199 148.957 321.885L148.131 325.297C147.628 322.899 149.335 315.821 148.777 313.276C139.004 321.697 130.235 329.275 119.379 336.39C117.237 337.793 116.055 355.052 114.196 355.428C115.242 341.999 125.257 308.093 133.664 298.397C143.175 278.723 161.456 266.897 173.292 249.928Z"/><path fill="#3136F1" d="M173.292 249.928C174.459 252.495 168.863 262.435 167.723 263.207C165.153 263.614 161.879 272.547 160.177 274.986C159.439 274.154 160.13 274.314 159.863 273.298C159.849 273.245 159.724 273.252 159.722 273.251C157.485 274.651 152.185 281.387 149.304 283.079C146.588 284.674 139.562 295.148 137.773 296.055L137.632 296.003C137.619 296.433 143.694 285.25 144.121 284.399C141.69 287.504 136.033 296.834 133.664 298.397C143.175 278.723 161.456 266.897 173.292 249.928Z"/><path fill="#3136F1" d="M449.26 873.035C466.686 871.289 483.884 865.182 501.366 862.801C505.835 862.193 511.358 860.267 516.001 859.335C576.206 847.786 636.095 834.647 695.605 819.93C708.244 816.911 726.499 815.357 738.881 810.743C746.385 807.947 751.627 809.554 755.91 807.554C756.499 808.665 756.494 808.638 756.748 809.867C751.678 811.553 744.624 811.871 739.524 813.769C737.958 814.617 733.677 814.063 732.361 814.592C724.748 817.65 714.721 820.027 706.548 820.942C695.473 822.183 686.628 826.343 675.65 828.224C617.211 838.234 560.167 854.24 501.768 864.308C486.835 866.882 471.572 872.378 456.352 873.689C453.933 873.111 452.964 874.489 449.26 873.035Z"/><path fill="#3136F1" d="M318.418 818.835L319.203 819.453C325.453 824.425 334.452 833.381 340.608 837.693C360.862 851.88 382.159 861.515 406.164 867.435C410.234 868.438 415.699 870.16 419.636 870.925C427.94 872.539 441.316 871.625 449.26 873.035C452.964 874.489 453.933 873.111 456.352 873.689C453.167 876.208 435.263 877.057 430.601 876.593C390.287 872.575 350.123 854.897 320.254 827.426C320.464 821.896 318.439 820.451 318.418 818.835Z"/><path fill="#3136F1" d="M796.936 805.185C801.499 805.481 804.017 801.525 809.326 803.661C788.84 817.156 765.7 833.895 740.58 837.7L740.45 837.005C745.744 835.736 759.57 831.977 763.967 829.381C764.503 828.12 762.349 817.537 761.372 815.665C757.651 815.28 731.603 821.887 725.881 823.043L642.864 838.996L642.793 838.701C646.702 837.228 656.915 835.676 661.226 834.929C666.828 833.911 672.412 832.802 677.978 831.603L750.804 816.033C763.589 813.259 784.745 808.909 796.936 805.185Z"/><path fill="#060AD2" d="M257.307 323.409C263.214 342.759 268.707 365.243 274.025 385.001L297.89 473.386C301.779 488.295 305.887 503.489 310.161 518.21C314.685 533.792 316.684 554.299 332.263 562.663C350.955 572.697 374.337 560.884 393.943 558.811L394.143 559.487C384.822 562.312 374.774 563.018 365.092 565.688C352.845 569.064 337.553 568.959 327.329 560.561C317.701 552.652 316.26 543.138 312.751 531.849C311.747 528.62 311.643 524.917 309.916 522.074C308.927 520.421 308.853 520.558 309.328 518.898L309.107 518.59L308.373 520.123C305.749 520.362 299.964 521.277 298.676 518.715L299.314 517.508C298.783 514.712 297.75 516.737 297.566 513.503C297.443 511.339 298.98 507.802 298.424 506.345C296.902 506.233 295.728 506.373 294.638 505.403L294.641 504.594C296.48 504.447 299.598 504.333 300.998 503.169C301.755 502.541 301.375 502.669 302.178 502.605C302.187 503.165 302.195 503.725 302.204 504.285C303.71 503.994 303.62 503.865 304.714 502.723L304 502L304.371 500.752C300.967 490.536 297.569 475.523 294.71 464.811L278.319 403.513C276.664 397.103 272.243 385.101 271.51 379.381C270.334 370.2 256.112 329.27 257.307 323.409Z"/><path fill="#3136F1" d="M718.789 493.377C718.714 495.192 710.63 503.367 709.144 504.887C708.528 505.461 706.926 507.251 706.272 507.594C706.122 507.27 706.05 507.136 705.892 506.728C705.188 506.713 705.47 507.746 704.776 508.101C704.643 507.973 704.51 507.845 704.378 507.717C704.095 507.775 703.168 509.66 701.569 509.814L701.522 509.793C701.225 509.843 698.98 510.831 698.037 511.085C695.365 511.936 694.496 512.625 692.663 514.415L692.428 514.371C692.413 514.334 692.217 513.647 692.211 513.622C691.091 514.018 687.013 516.154 686.027 516.895C685.612 516.368 685.514 515.502 685.16 515.06C684.46 515.267 683.054 515.866 682.921 514.671C683.439 514.208 687.857 511.936 688.798 511.395C693.971 508.416 699.297 505.256 704.231 501.882L705.729 500.882C707.855 499.473 716.328 496.447 712.604 494.696C713.285 494.478 714.296 494.259 715.007 494.114C716.263 493.847 717.524 493.601 718.789 493.377Z"/><path fill="#656DF1" d="M815.075 796.736C824.489 794.183 844.82 779.614 848.395 779.618C835.447 790.435 822.373 795.011 809.326 803.661C804.017 801.525 801.499 805.481 796.936 805.185C796.541 805.036 796.146 804.886 795.751 804.736C780.228 808.078 763.502 811.684 748.08 814.922C742.733 816.044 738.853 817.821 735.795 817.46C736.266 816.98 746.827 814.876 748.479 814.495C756.1 812.691 763.74 810.966 771.397 809.32C788.462 805.8 798.92 803.396 815.075 796.736Z"/><path fill="#919BC9" d="M160.177 274.986C161.879 272.547 165.153 263.614 167.723 263.207C157.617 285.708 153.46 301.581 151.477 326.233C150.865 328.87 150.778 330.096 150.574 332.757C150.465 330.166 151.574 317.652 151.33 317.023L150.673 316.777C148.933 319.166 150.02 329.193 149.269 332.331C148.677 330.219 148.931 324.394 148.957 321.885C149.544 307.199 154.758 288.657 160.177 274.986Z"/><path fill="#3136F1" d="M807.009 793.538C808.826 794.035 813.491 792.847 814.511 793.116L814.615 793.281C813.379 794.792 813.116 794.497 811.384 794.332C810.801 794.985 807.05 797.236 806.564 795.763C806.757 795.376 807.225 795.545 807.492 795.149C807.395 794.494 800.946 795.597 805.022 796.098L805.114 796.287C804.829 796.962 798.068 798.454 798.248 798.305C797.967 799.644 796.763 799.475 796.591 798.775C796.712 798.541 797.081 798.018 796.983 797.724C794.312 798.01 790.231 802.751 787.819 801.984L786.934 802.311C784.595 803.186 782.208 804.116 779.726 804.535C779.629 804.449 779.386 804.285 779.28 804.253C778.909 805.22 772.537 808.678 772.345 806.288C772.289 805.591 765.775 807.253 765.562 806.291C766.39 805.436 765.566 806.008 764.629 805.281C765.542 804.508 778.688 801.644 780.185 801.928C784.845 800.411 790.714 799.736 795.016 797.538L795.515 797.294C796.343 796.88 798.882 795.619 799.748 795.735C802.625 796.121 803.454 792.714 807.009 793.538Z"/><path fill="#3136F1" d="M220.425 546.826C221.17 548.565 222.397 551.071 222.017 552.891C222.009 553.44 222.293 556.555 222.1 556.782C220.433 556.256 219.775 548.596 220.425 546.826Z"/><path fill="#060AD2" d="M303.258 502C303.336 501.645 303.343 501.431 303.47 501.282L303.531 501.284C303.815 501.59 303.631 501.371 304 502C303.83 502.195 303.659 502.39 303.489 502.585C303.32 502.447 303.322 502.234 303.258 502Z"/><path fill="#060AD2" d="M274.066 423.831C275.806 423.911 275.206 423.343 276.27 423.334C277.063 423.876 276.123 423.751 276.766 424.424C277.238 424.118 277.111 423.689 277.765 423.825C277.943 424.06 277.898 423.974 278.026 424.265C278.079 424.391 278.132 424.518 278.185 424.644C278.429 425.005 278.953 426.337 279.298 426.383C280.244 426.508 279.26 426.192 279.94 426.447C280.038 427.215 279.395 427.213 279.654 428.308C280.047 429.979 281.531 429.271 281.752 431.261C281.794 431.636 282.131 435.365 280.479 434.398C280.303 433.577 280.313 433.616 279.453 433.636C277.647 432.742 278.556 433.469 277.589 434.205C276.851 433.916 275.422 432.457 274.095 431.944C274.102 431.846 274.108 431.749 274.115 431.651C274.237 430.9 274.685 430.203 274.647 429.437C274.599 428.472 273.073 428.539 273.239 427.522C273.292 427.193 273.507 426.777 273.24 426.499C272.794 426.52 272.462 426.825 272.032 426.917L271.852 426.779C271.835 426.002 272.348 424.046 273.438 424.113C273.484 424.155 273.529 424.198 273.575 424.24C273.791 424.154 273.812 424.148 274.066 423.831Z"/><path fill="#060AD2" d="M285.332 448.594C285.843 449.086 286.024 449.764 286.278 449.916C286.516 449.805 286.568 449.549 286.779 449.398C287.184 449.726 286.208 455.452 283.634 453.927C282.989 453.674 282.614 453.201 282.19 453.111C281.939 453.191 281.921 453.455 281.703 453.593C281.41 453.379 281.537 453.519 281.349 453.15C281.768 452.215 281.8 450.666 282.19 450.437L282.352 450.518C282.615 450.893 282.461 450.805 282.714 450.906C282.857 450.814 284.789 448.998 285.332 448.594Z"/><path fill="#CECED5" d="M449.494 584.519C456.479 580.474 462.901 580.485 470.355 583.149C501.781 596.074 533.294 608.788 564.89 621.291C572.907 624.456 580.949 627.554 589.017 630.585C597.003 633.57 604.092 636.066 611.34 640.019C620.041 644.764 624.619 656.889 619.739 665.867C613.45 677.436 599.861 687.801 590.833 697.746C588.058 700.803 582.453 706.825 579.541 709.218C577.373 711.967 574.33 715.01 571.799 717.476C563.926 725.144 556.6 733.503 548.698 741.119C540.792 749.354 532.794 757.502 524.707 765.56C522.989 767.291 521.395 768.454 519.526 769.98C516.591 772.474 503.886 782.13 502.414 784.265C500.969 784.928 499.433 785.667 497.971 786.262C494.932 786.941 491.799 787.093 488.709 786.711C473.972 784.792 465.741 774.04 467.774 759.418C470.452 752.025 471.096 752.956 474.619 746.927C480.131 741.586 488.461 731.72 493.553 727.429C496.365 726.555 496.404 726.102 498.553 723.838C509.165 712.657 520.125 701.722 530.785 690.55C531.147 690.171 533.589 687.624 533.98 687.844C534.033 688.122 534.029 688.114 533.895 688.395C533.29 689.662 532.08 690.351 531.435 691.508C531.328 691.7 531.854 692.119 531.854 692.119C532.552 691.653 540.539 683.143 541.346 682.22C540.235 682.585 538.409 684.21 537.876 683.706C537.704 682.958 539.364 681.804 538.704 680.854C538.372 680.377 538.073 679.828 537.887 679.274L537.626 678.549C537.196 677.716 536.336 676.073 535.585 675.681C523.447 669.334 505.979 663.809 493.451 658.751C492.119 658.434 487.063 656.703 485.82 656.123C473.607 650.421 435.144 640.323 427.525 630.269C424.423 626.216 423.097 621.079 423.848 616.03C425.777 612.684 430.194 608.02 432.714 604.799C435.625 601.079 438.678 596.937 441.709 593.374C443.467 594.762 440.745 593.976 442.624 596.033L443.412 595.738C444.222 591.518 444.881 589.788 447.63 586.509L449.494 584.519Z"/><path fill="#7F83DC" d="M423.848 616.03C425.777 612.684 430.194 608.02 432.714 604.799C435.625 601.079 438.678 596.937 441.709 593.374C443.467 594.762 440.745 593.976 442.624 596.033L443.412 595.738C444.532 617.771 455.209 620.366 473.681 626.984C479.259 628.982 485.299 631.127 490.836 633.316C493.692 635.672 500.221 637.449 503.991 638.906C504.112 639.137 505.31 641.421 505.31 641.421C504.413 646.062 501.568 656.821 497.308 659.245C495.602 658.859 495.142 658.569 493.451 658.751C492.119 658.434 487.063 656.703 485.82 656.123C473.607 650.421 435.144 640.323 427.525 630.269C424.423 626.216 423.097 621.079 423.848 616.03Z"/><path fill="#7F83DC" d="M493.553 727.429C496.365 726.555 496.404 726.102 498.553 723.838C509.165 712.657 520.125 701.722 530.785 690.55C531.147 690.171 533.589 687.624 533.98 687.844C534.033 688.122 534.029 688.114 533.895 688.395C533.29 689.662 532.08 690.351 531.435 691.508C531.328 691.7 531.854 692.119 531.854 692.119C527.73 697.556 517.711 706.989 512.563 712.771C506.623 718.631 498.721 726.034 493.738 732.421C492.795 737.713 491.143 740.279 492.163 746.003C492.852 749.87 496.378 757.627 499.697 759.665C507.12 764.225 516.201 767.018 524.707 765.56C522.989 767.291 521.395 768.454 519.526 769.98C516.591 772.474 503.886 782.13 502.414 784.265C500.969 784.928 499.433 785.667 497.971 786.262C494.932 786.941 491.799 787.093 488.709 786.711C473.972 784.792 465.741 774.04 467.774 759.418C470.452 752.025 471.096 752.956 474.619 746.927C480.131 741.586 488.461 731.72 493.553 727.429Z"/><path fill="#A8A8C2" d="M519.526 769.98C513.083 770.217 510.861 771.43 504.32 768.679C490.491 762.864 483.587 744.696 493.738 732.421C492.795 737.713 491.143 740.279 492.163 746.003C492.852 749.87 496.378 757.627 499.697 759.665C507.12 764.225 516.201 767.018 524.707 765.56C522.989 767.291 521.395 768.454 519.526 769.98Z"/><path fill="#919BC9" d="M490.836 633.316C495.12 634.414 500.951 636.809 505.192 638.408C513.422 641.457 521.606 644.629 529.741 647.924C537.025 650.864 549.799 654.548 555.558 660.607C556.565 661.666 555.178 666.38 554.796 667.938C552.495 672.025 550.538 674.635 546.854 677.719C545.115 679.187 542.99 681.967 541.346 682.22C540.235 682.585 538.409 684.21 537.876 683.706C537.704 682.958 539.364 681.804 538.704 680.854C538.372 680.377 538.073 679.828 537.887 679.274L537.626 678.549C537.196 677.716 536.336 676.073 535.585 675.681C523.447 669.334 505.979 663.809 493.451 658.751C495.142 658.569 495.602 658.859 497.308 659.245C501.568 656.821 504.413 646.062 505.31 641.421C505.31 641.421 504.112 639.137 503.991 638.906C500.221 637.449 493.692 635.672 490.836 633.316Z"/><path fill="#A8A8C2" d="M443.412 595.738C444.222 591.518 444.881 589.788 447.63 586.509C447.818 593.896 448.014 605.507 453.908 610.762C461.974 617.953 476.287 621.338 486.538 625.063C496.689 628.752 506.226 632.389 516.359 636.112C527.185 640.09 539.39 643.376 549.559 648.56C552.921 650.274 556.234 653.141 557.589 656.741C557.317 659.319 557.413 669.925 554.161 671.266C553.354 670.611 555.925 669.417 554.796 667.938C555.178 666.38 556.565 661.666 555.558 660.607C549.799 654.548 537.025 650.864 529.741 647.924C521.606 644.629 513.422 641.457 505.192 638.408C500.951 636.809 495.12 634.414 490.836 633.316C485.299 631.127 479.259 628.982 473.681 626.984C455.209 620.366 444.532 617.771 443.412 595.738Z"/><path fill="#B9B6C9" d="M541.346 682.22C542.99 681.967 545.115 679.187 546.854 677.719L547.666 679.631C540.393 686.886 533.303 694.634 525.994 701.773C525.876 701.888 525.477 701.36 525.294 701.264C521.254 704.122 517.564 709.921 512.563 712.771C517.711 706.989 527.73 697.556 531.854 692.119C532.552 691.653 540.539 683.143 541.346 682.22Z"/><path fill="#B9B6C9" d="M548.698 741.119C550.691 734.303 555.171 731.911 559.697 726.694C560.333 725.96 564.061 722.024 564.61 721.688C564.774 721.878 564.937 722.067 565.101 722.257C566.783 722.037 575.389 710.41 579.541 709.218C577.373 711.967 574.33 715.01 571.799 717.476C563.926 725.144 556.6 733.503 548.698 741.119Z"/><path fill="#B9B6C9" d="M557.589 656.741C560.368 668.187 554.85 672.253 547.666 679.631L546.854 677.719C550.538 674.635 552.495 672.025 554.796 667.938C555.925 669.417 553.354 670.611 554.161 671.266C557.413 669.925 557.317 659.319 557.589 656.741Z"/><path fill="#F1F1F3" d="M468.047 586.587C479.666 590.503 489.533 594.963 500.838 599.392L570.806 627.38C586.21 633.708 598.323 636.189 613.419 644.42C614.131 644.931 619.523 649.106 616.785 650.955C615.923 651.537 613.633 648.825 612.454 648.751C611.906 649.186 612.642 649.48 612.637 649.994C611.908 650.749 609.884 649.144 609.355 648.696C606.777 646.513 603.396 645.577 600.556 643.882C600.449 643.818 600.509 643.699 600.536 643.592L600.781 643.505C602.018 643.75 608.04 646.995 608.65 646.917L608.725 646.809C608.357 645.313 593.618 639.868 590.932 637.676C580.524 633.718 571.529 629.654 561.456 625.642L501.955 602.146C490.876 597.687 478.698 591.913 467.55 588.113L468.047 586.587Z"/><path fill="#E9E8EB" d="M590.932 637.676C594.987 638.771 616.479 649.427 616.204 649.478C617.07 648.705 613.977 645.397 613.419 644.42C614.131 644.931 619.523 649.106 616.785 650.955C615.923 651.537 613.633 648.825 612.454 648.751C611.906 649.186 612.642 649.48 612.637 649.994C611.908 650.749 609.884 649.144 609.355 648.696C606.777 646.513 603.396 645.577 600.556 643.882C600.449 643.818 600.509 643.699 600.536 643.592L600.781 643.505C602.018 643.75 608.04 646.995 608.65 646.917L608.725 646.809C608.357 645.313 593.618 639.868 590.932 637.676Z"/><path fill="#E9E8EB" d="M467.55 588.113C467.072 587.963 463.958 587.307 463.929 586.707L464.027 586.674L464.079 586.602C465.261 586.192 466.825 586.363 468.047 586.587L467.55 588.113Z"/><path fill="#1015DF" d="M470.926 748.401C474.392 745.425 492.501 726.528 493.545 723.245C489.834 720.706 486.647 710.787 484.514 709.571C470.807 701.761 454.156 697.183 438.876 693.378C433.155 691.953 426.665 688.314 420.947 686.545C408.757 681.547 394.227 677.939 383.731 670.177C381.107 668.175 374.973 659.791 375.41 656.485C377.781 638.505 398.577 621.689 409.056 607.544C413.557 601.468 425.329 595.766 432.205 595.635C433.449 595.611 435.029 595.442 435.937 596.329C432.196 602.387 424.408 606.19 423.848 616.03C423.097 621.079 424.423 626.216 427.525 630.269C435.144 640.323 473.607 650.421 485.82 656.123C487.063 656.703 492.119 658.434 493.451 658.751C505.979 663.809 523.447 669.334 535.585 675.681C536.336 676.073 537.196 677.716 537.626 678.549L537.887 679.274C538.073 679.828 538.372 680.377 538.704 680.854C539.364 681.804 537.704 682.958 537.876 683.706C538.409 684.21 540.235 682.585 541.346 682.22C540.539 683.143 532.552 691.653 531.854 692.119C531.854 692.119 531.328 691.7 531.435 691.508C532.08 690.351 533.29 689.662 533.895 688.395C534.029 688.114 534.033 688.122 533.98 687.844C533.589 687.624 531.147 690.171 530.785 690.55C520.125 701.722 509.165 712.657 498.553 723.838C496.404 726.102 496.365 726.555 493.553 727.429C488.461 731.72 480.131 741.586 474.619 746.927C472.525 747.876 470.714 750.702 469.387 752.58L468.801 752.456C469.126 749.914 469.622 750.848 470.926 748.401Z"/><path fill="#656DF1" d="M537.626 678.549L537.887 679.274C538.073 679.828 538.372 680.377 538.704 680.854C539.364 681.804 537.704 682.958 537.876 683.706C538.409 684.21 540.235 682.585 541.346 682.22C540.539 683.143 532.552 691.653 531.854 692.119C531.854 692.119 531.328 691.7 531.435 691.508C532.08 690.351 533.29 689.662 533.895 688.395C534.029 688.114 534.033 688.122 533.98 687.844C533.589 687.624 531.147 690.171 530.785 690.55C520.125 701.722 509.165 712.657 498.553 723.838C496.404 726.102 496.365 726.555 493.553 727.429C496.116 724.348 500.053 720.689 502.918 717.708L527.842 692.035C530.796 688.977 534.285 685.701 537.043 682.49C537.603 681.838 537.561 679.477 537.626 678.549Z"/><path fill="#96C1F5" d="M626.171 117.516C655.933 114.984 688.214 124.159 714.205 138.397C754.863 160.669 785.664 198.921 800.71 242.583C803.563 250.862 806.957 259.856 808.703 268.429L808.2 268.629C806.679 265.929 807.222 263.342 805.616 261.328L805.314 261.475L804.666 263.579C805.017 263.947 805.368 264.314 805.72 264.681C806.85 270.061 808.748 277.113 810.222 282.196C817.045 305.655 823.694 329.163 830.17 352.719C832.584 361.335 838.652 378.469 839.133 386.791C841.348 396.483 847.295 412.851 848.351 421.327L848.016 421.752C847.3 418.295 842.768 400.474 841.165 398.265C840.579 399.054 840.284 399.529 839.782 400.377C840.773 402.508 847.426 427.543 847.293 428.336C846.118 426.643 844.179 416.996 843.211 413.821C831.714 376.119 821.609 337.972 810.869 300.04C805.601 281.461 800.048 262.964 794.212 244.556C791.822 233.743 781.192 215.196 775.659 205.923C768.479 192.446 759.004 183.159 748.759 172.575C725.05 148.082 694.006 135.049 661.087 128.158C658.063 127.525 654.883 127.845 651.451 127.065C645.308 125.668 636.076 124.983 629.819 125.655L626.457 126.015C626.1 124.696 625.991 124.116 625.796 122.761C626.808 120.701 629.436 119.403 631.605 117.866C630.037 118.459 628.738 118.181 626.98 118.112L626.171 117.516Z"/><path fill="#63B3EA" d="M839.133 386.791C836.831 381.453 834.162 371.229 832.586 365.478L823.643 332.696L809.588 283.089C807.545 275.902 804.8 267.387 803.08 260.285C803.834 260.784 804.249 262.504 804.666 263.579C805.017 263.947 805.368 264.314 805.72 264.681C806.85 270.061 808.748 277.113 810.222 282.196C817.045 305.655 823.694 329.163 830.17 352.719C832.584 361.335 838.652 378.469 839.133 386.791Z"/><path fill="#1015DF" d="M490.951 794.167C481.135 800.738 459.48 816.31 448.335 812.628C422.615 804.131 460.931 771.125 465.807 759.221C466.101 758.503 466.008 758.718 466.701 758.339L467.774 759.418C465.741 774.04 473.972 784.792 488.709 786.711C491.799 787.093 494.932 786.941 497.971 786.262C497.169 790.335 494.206 791.354 490.951 794.167Z"/><path fill="#3136F1" d="M470.926 748.401C469.622 750.848 469.126 749.914 468.801 752.456L469.387 752.58C470.714 750.702 472.525 747.876 474.619 746.927C471.096 752.956 470.452 752.025 467.774 759.418L466.701 758.339C466.008 758.718 466.101 758.503 465.807 759.221C460.931 771.125 422.615 804.131 448.335 812.628C459.48 816.31 481.135 800.738 490.951 794.167C494.206 791.354 497.169 790.335 497.971 786.262C499.433 785.667 500.969 784.928 502.414 784.265C501.832 788.509 494.02 796.792 490.462 799.14C488.987 800.114 480.163 805.773 479.083 806.082C469.825 819.006 447.115 825.609 435.865 811.267C433.058 807.687 433.306 801.214 435.042 797.256C435.821 795.481 437.03 794.25 436.106 792.379C435.993 791.9 442.56 783.081 442.859 781.781L441.789 781.522C441.044 780.207 445.362 779.686 445.834 777.763C444.482 776.979 444.439 777.356 442.823 777.847C444.949 774.57 467.5 751.085 470.926 748.401Z"/><path fill="#63B3EA" d="M626.457 126.015L629.819 125.655C636.076 124.983 645.308 125.668 651.451 127.065C654.883 127.845 658.063 127.525 661.087 128.158C694.006 135.049 725.05 148.082 748.759 172.575C759.004 183.159 768.479 192.446 775.659 205.923C781.192 215.196 791.822 233.743 794.212 244.556C791.478 241.14 787.415 227.754 784.392 222.987C779.808 215.756 775.116 205.837 770.16 198.985C767.413 195.034 761.985 191.107 759.374 187.294C725.519 137.856 651.601 117.543 595.39 131.648L594.791 131.804C605.007 127.252 615.519 128.482 625.635 126.207L626.457 126.015Z"/><path fill="#3136F1" d="M855.021 772.545C856.167 769.715 858.271 769.303 860.617 767.371C882.314 749.51 895.173 726.765 903.646 700.241C904.722 696.871 905.925 685.319 908.119 683.316C903.789 716.838 881.733 754.883 854.843 774.852C853.444 775.891 849.671 778.857 848.395 779.618C844.82 779.614 824.489 794.183 815.075 796.736C815.482 795.172 823.542 792.271 825.458 791.002C833.668 785.567 848.193 779.485 855.024 773.214L855.021 772.545Z"/><path fill="#7F83DC" d="M257.49 277.296C261.218 272.998 265.694 269.922 269.911 266.221C273.73 262.867 277.313 259.134 281.391 256.055C280.745 258.47 280.511 258.998 279.343 261.148C277.956 262.553 276.215 263.862 275.742 265.877C272.935 268.09 270.404 268.978 267.705 270.859C263.677 273.665 262.057 275.284 257.49 277.296Z"/><path fill="#656DF1" d="M718.789 493.377C720.553 492.635 722.444 492.36 724.24 491.718L724.946 491.474L725.118 492.202C725.431 493.485 725.536 495.218 724.208 496.178C723.809 496.21 723.655 496.025 723.373 495.757L723.27 495.757C723.097 496.21 723.375 496.419 723.068 496.965C722.601 497.036 722.912 497.016 722.137 496.863L721.851 496.305C720.976 496.489 720.177 498.644 719.49 497.83L719.276 497.759C718.957 498.561 720.255 498.902 718.768 499.621C718.711 499.486 718.447 498.885 718.376 498.749C718.129 498.817 718.03 498.927 717.792 499.123C717.557 498.872 717.546 498.84 717.291 498.711C715.7 501.521 718.672 499.565 716.94 501.962C715.487 503.972 713.045 502.106 713.015 504.494C713.011 504.84 710.149 504.817 709.144 504.887C710.63 503.367 718.714 495.192 718.789 493.377Z"/><path fill="#848AF2" d="M473.11 142.568C480.531 140.976 494.093 138.188 501.355 137.685C501.247 139.555 496.141 138.878 494.503 139.749C493.52 140.271 490.941 140.03 490.631 140.157L490.59 140.266C491.031 140.693 491.839 140.436 492.267 140.927C491.97 141.319 473.128 145.628 471.888 144.732C472.116 144.459 483.267 142.972 484.291 141.811C484.329 141.053 481.002 142.122 480.271 142.125C478.88 142.132 474.415 143.456 473.238 143.209C473.195 142.995 473.153 142.782 473.11 142.568Z"/><path fill="#1015DF" d="M635.861 705.379C642.076 698.668 648.724 698.514 657.134 696.89C664.621 695.444 672.126 694.07 679.609 692.601L717.804 685.162C729.781 682.867 747.028 677.116 756.657 686.846C763.773 694.036 765.747 705.345 759.574 713.811C755.881 718.044 754.046 718.943 748.57 720.166C748.968 722.114 749.908 720.432 750.673 720.547C750.89 721.325 744.337 727.081 743.389 727.867C739.532 731.069 737.149 733.798 732.396 735.668C731.862 737.683 731.151 738.042 729.334 739.476C728.255 742.726 720.538 755.112 717.206 755.983L716.877 754.686C715.247 754.429 714.261 758.577 712.121 759.04L711.957 757.355L711.446 757.462C711.281 758.632 711.463 758.233 710.824 759.182L710.439 758.311C707.385 760.105 703.679 764.276 700.643 766.464C679.29 781.856 652.794 784.744 627.336 786.834C624.718 787.049 622.107 788.141 619.325 788.444C609.203 789.546 598.278 792.759 588.454 788.53C580.528 784.989 577.782 775.806 581.481 768.238C580.739 767.625 581.094 767.981 580.437 767.148C582.414 756.495 590.447 749.396 597.053 741.676C602.537 735.267 606.223 729.782 612.537 724.014L613.247 724.182C613.648 723.941 616.708 720.05 617.583 719.085C621.003 715.315 631.055 707.237 635.595 705.328L635.861 705.379Z"/><path fill="#CECED5" d="M635.861 705.379C642.076 698.668 648.724 698.514 657.134 696.89C664.621 695.444 672.126 694.07 679.609 692.601L717.804 685.162C729.781 682.867 747.028 677.116 756.657 686.846C763.773 694.036 765.747 705.345 759.574 713.811C755.881 718.044 754.046 718.943 748.57 720.166C748.968 722.114 749.908 720.432 750.673 720.547C750.89 721.325 744.337 727.081 743.389 727.867C739.532 731.069 737.149 733.798 732.396 735.668C730.228 736.283 728.189 736.88 725.983 737.397C724.24 734.456 719.758 731.173 716.935 729.194C712.976 729.079 707.336 729.265 703.841 729.057C697.326 729.895 689.816 732.107 683.239 733.491C674.942 735.236 666.993 736.279 658.73 737.685C651.595 736.881 642.434 738.093 637.935 730.494C633.068 722.271 632.223 715.512 635.091 706.391L635.224 705.96L635.595 705.328L635.861 705.379Z"/><path fill="#A8A8C2" d="M635.595 705.328L635.861 705.379C635.047 711.471 635.869 719.253 639.86 724.16C651.866 738.923 672.699 731.243 688.307 729.109C691.731 728.642 695.786 729.727 699.269 729.084C710.23 726.39 721.128 723.561 732.314 721.887C734.586 721.547 737.983 721.673 739.809 720.442L739.7 719.279C736.822 719.648 707.833 724.048 707.898 724.063C712.187 722.115 730.878 719.776 736.405 718.375C741.327 717.128 755.236 713.649 759.574 713.811C755.881 718.044 754.046 718.943 748.57 720.166C748.968 722.114 749.908 720.432 750.673 720.547C750.89 721.325 744.337 727.081 743.389 727.867C739.532 731.069 737.149 733.798 732.396 735.668C730.228 736.283 728.189 736.88 725.983 737.397C724.24 734.456 719.758 731.173 716.935 729.194C712.976 729.079 707.336 729.265 703.841 729.057C697.326 729.895 689.816 732.107 683.239 733.491C674.942 735.236 666.993 736.279 658.73 737.685C651.595 736.881 642.434 738.093 637.935 730.494C633.068 722.271 632.223 715.512 635.091 706.391L635.224 705.96L635.595 705.328Z"/><path fill="#7F83DC" d="M703.841 729.057C705.129 728.685 706.434 728.373 707.75 728.122C716.108 726.553 724.491 723.891 732.994 722.875C738.018 722.275 743.69 720.61 748.57 720.166C748.968 722.114 749.908 720.432 750.673 720.547C750.89 721.325 744.337 727.081 743.389 727.867C739.532 731.069 737.149 733.798 732.396 735.668C730.228 736.283 728.189 736.88 725.983 737.397C724.24 734.456 719.758 731.173 716.935 729.194C712.976 729.079 707.336 729.265 703.841 729.057Z"/><path fill="#E9E8EB" d="M645.547 706.174C649.249 703.163 652.22 701.901 656.82 700.905C675.366 696.89 693.895 692.994 712.535 689.447C718.142 688.381 723.838 687.267 729.507 686.688L729.501 688.042C710.353 692.68 689.83 696.185 670.472 700.036C661.905 701.74 653.947 704.428 645.547 706.174Z"/><path fill="#F1F1F3" d="M729.507 686.688C742.385 684.512 753.18 681.506 759.369 696.016C747.15 684.641 746.092 685.465 730.251 687.919L729.501 688.042L729.507 686.688Z"/><defs><linearGradient id="gradient_9" gradientUnits="userSpaceOnUse" x1="671.71674" y1="751.47357" x2="657.25586" y2="700.98053"><stop offset="0" stop-color="#5F61DF"/><stop offset="1" stop-color="#8C95F0"/></linearGradient></defs><path fill="url(#gradient_9)" d="M613.247 724.182C613.648 723.941 616.708 720.05 617.583 719.085C621.003 715.315 631.055 707.237 635.595 705.328L635.224 705.96L635.091 706.391C632.223 715.512 633.068 722.271 637.935 730.494C642.434 738.093 651.595 736.881 658.73 737.685C666.993 736.279 674.942 735.236 683.239 733.491C689.816 732.107 697.326 729.895 703.841 729.057C707.336 729.265 712.976 729.079 716.935 729.194C719.758 731.173 724.24 734.456 725.983 737.397C718.579 738.222 708.256 740.95 700.599 742.563L655.078 751.964C648.931 753.23 642.684 754.351 636.563 755.624C620.942 758.872 608.635 745.383 610.708 729.87L613.247 724.182Z"/><path fill="#7F83DC" d="M658.73 737.685C656.023 738.462 654.793 737.798 652.28 738.16C646.323 739.018 635.622 733.14 633.791 727.511C631.206 719.564 628.256 712.603 635.224 705.96L635.091 706.391C632.223 715.512 633.068 722.271 637.935 730.494C642.434 738.093 651.595 736.881 658.73 737.685Z"/><path fill="#3136F1" d="M729.334 739.476C728.255 742.726 720.538 755.112 717.206 755.983L716.877 754.686C715.247 754.429 714.261 758.577 712.121 759.04L711.957 757.355L711.446 757.462C711.281 758.632 711.463 758.233 710.824 759.182L710.439 758.311C707.385 760.105 703.679 764.276 700.643 766.464C679.29 781.856 652.794 784.744 627.336 786.834C624.718 787.049 622.107 788.141 619.325 788.444C609.203 789.546 598.278 792.759 588.454 788.53C580.528 784.989 577.782 775.806 581.481 768.238C580.739 767.625 581.094 767.981 580.437 767.148C582.414 756.495 590.447 749.396 597.053 741.676C602.537 735.267 606.223 729.782 612.537 724.014L613.247 724.182L610.708 729.87C610.217 730.038 609.726 730.205 609.234 730.373C601.75 742.14 593.953 753.809 587.117 765.965C585.2 769.374 583.557 775.833 584.684 779.673C586.167 784.729 597.114 785.7 601.64 785.516C608.421 785.239 615.549 783.403 622.283 782.445C642.901 778.751 666.535 774.998 686.13 767.931C694.203 765.02 708.192 756.4 715.092 751.064C719.653 747.538 724.612 742.64 729.334 739.476Z"/></svg>