<svg xmlns="http://www.w3.org/2000/svg" viewBox="0 0 256 256" role="img" aria-label="SnipDrop — Drop Scene">
  <g fill="none" stroke-linecap="round" stroke-linejoin="round">

    <!-- image tile being dragged -->
    <g transform="translate(40 24) rotate(-7 52 40)">
      <rect x="0" y="0" width="104" height="82" rx="12" stroke="#64748b" stroke-width="6" stroke-dasharray="15 9"/>
      <circle cx="28" cy="27" r="11" fill="#22d3ee"/>
      <path d="M12 64 L38 32 L55 51 L78 25 L96 58" stroke="#90ff4f" stroke-width="7"/>
    </g>

    <!-- dashed motion path from tile to drop zone -->
    <path d="M150 118 C188 130 200 142 200 158" stroke="#94a3b8" stroke-width="6" stroke-dasharray="3 12"/>
    <path d="M188 150 L200 162 L212 150" stroke="#94a3b8" stroke-width="6"/>

    <!-- cursor -->
    <g transform="translate(140 96)">
      <path d="M0 0 L0 30 L8 22 L14 33 L19 31 L13 20 L23 20 Z" fill="#0f172a" stroke="#f8fafc" stroke-width="3.5" stroke-linejoin="round"/>
    </g>

    <!-- drop zone / prompt -->
    <rect x="34" y="166" width="188" height="62" rx="20" stroke="#2f6fff" stroke-width="7" stroke-dasharray="17 12"/>
    <path d="M58 184 L76 197 L58 210" stroke="#90ff4f" stroke-width="8"/>
    <path d="M94 204 H196" stroke="#64748b" stroke-width="6" stroke-dasharray="13 12"/>
  </g>
</svg>
